<?xml version="1.0" encoding="UTF-8" standalone="no"?>
<!DOCTYPE svg PUBLIC "-//W3C//DTD SVG 1.1//EN" "http://www.w3.org/Graphics/SVG/1.1/DTD/svg11.dtd">
<svg width="100%" height="100%" viewBox="0 0 120 120" version="1.1" xmlns="http://www.w3.org/2000/svg" xmlns:xlink="http://www.w3.org/1999/xlink" xml:space="preserve" xmlns:serif="http://www.serif.com/" style="fill-rule:evenodd;clip-rule:evenodd;stroke-linejoin:round;stroke-miterlimit:2;">
    <g transform="matrix(1.33333,0,0,1.33333,0,0)">
        <g>
            <g>
                <path d="M77.8,30L38.2,30C38.4,31 38.6,31.6 38.6,32.4C38.6,33.3 38.4,34 38.1,35L77.8,35C78.9,35 79.8,33.9 79.8,32.5C79.8,31.1 78.9,30 77.8,30Z" style="fill-rule:nonzero;"/>
                <path d="M22.9,32.4C22.9,31.6 23,31 23.3,30L12.3,30C11.2,30 10.3,31.1 10.3,32.5C10.3,33.9 11.2,35 12.3,35L23.4,35C23,34 22.9,33.3 22.9,32.4Z" style="fill-rule:nonzero;"/>
            </g>
            <path d="M30.7,28.9C32.5,28.9 33.9,30.3 33.9,32.1C33.9,33.9 32.5,35.3 30.7,35.3C28.9,35.3 27.5,33.9 27.5,32.1C27.5,30.3 28.9,28.9 30.7,28.9M30.7,25.9C27.3,25.9 24.5,28.7 24.5,32.1C24.5,35.5 27.3,38.3 30.7,38.3C34.1,38.3 36.9,35.5 36.9,32.1C36.9,28.6 34.1,25.9 30.7,25.9Z" style="fill-rule:nonzero;"/>
            <g>
                <path d="M50.7,57.4C50.7,56.6 50.8,56 51.1,55L12.2,55C11.1,55 10.2,56.1 10.2,57.5C10.2,58.9 11.1,60 12.2,60L51.2,60C50.9,60 50.7,58.3 50.7,57.4Z" style="fill-rule:nonzero;"/>
                <path d="M77.8,55L66.1,55C66.3,56 66.5,56.6 66.5,57.4C66.5,58.3 66.3,60 66,60L77.8,60C78.9,60 79.8,58.9 79.8,57.5C79.8,56.1 78.9,55 77.8,55Z" style="fill-rule:nonzero;"/>
            </g>
            <path d="M58.6,54.7C60.4,54.7 61.8,56.1 61.8,57.9C61.8,59.7 60.4,61.1 58.6,61.1C56.8,61.1 55.4,59.7 55.4,57.9C55.4,56.2 56.8,54.7 58.6,54.7M58.6,51.7C55.2,51.7 52.4,54.5 52.4,57.9C52.4,61.3 55.2,64.1 58.6,64.1C62,64.1 64.8,61.3 64.8,57.9C64.8,54.5 62,51.7 58.6,51.7Z" style="fill-rule:nonzero;"/>
        </g>
    </g>
</svg>
