<?xml version="1.0" encoding="UTF-8" standalone="no"?>
<!DOCTYPE svg PUBLIC "-//W3C//DTD SVG 1.1//EN" "http://www.w3.org/Graphics/SVG/1.1/DTD/svg11.dtd">
<svg width="100%" height="100%" viewBox="0 0 503 134" version="1.1" xmlns="http://www.w3.org/2000/svg" xmlns:xlink="http://www.w3.org/1999/xlink" xml:space="preserve" xmlns:serif="http://www.serif.com/" style="fill-rule:evenodd;clip-rule:evenodd;stroke-linejoin:round;stroke-miterlimit:2;">
    <g transform="matrix(1,0,0,1,0,-185)">
        <path d="M389.6,221.2L362.4,221.2C360.8,221.2 359.2,222.8 358.4,224.4L347.2,294.8C347.2,296.4 348,297.2 349.6,297.2L364,297.2C365.6,297.2 366.4,296.4 366.4,294.8L369.6,274.8C369.6,273.2 371.2,271.6 373.6,271.6L382.4,271.6C400.8,271.6 411.2,262.8 413.6,245.2C415.2,238 413.6,231.6 410.4,227.6C405.6,223.6 398.4,221.2 389.6,221.2M392.8,247.6C391.2,257.2 384,257.2 376.8,257.2L372,257.2L375.2,238.8C375.2,238 376,237.2 377.6,237.2L379.2,237.2C384,237.2 388.8,237.2 391.2,240.4C392.8,241.2 392.8,243.6 392.8,247.6" style="fill:rgb(19,154,214);fill-rule:nonzero;"/>
    </g>
    <g transform="matrix(1,0,0,1,0,-185)">
        <path d="M193.6,221.2L166.4,221.2C164.8,221.2 163.2,222.8 162.4,224.4L151.2,294.8C151.2,296.4 152,297.2 153.6,297.2L166.4,297.2C168,297.2 169.6,295.6 170.4,294L173.6,274.8C173.6,273.2 175.2,271.6 177.6,271.6L186.4,271.6C204.8,271.6 215.2,262.8 217.6,245.2C219.2,238 217.6,231.6 214.4,227.6C209.6,223.6 203.2,221.2 193.6,221.2M196.8,247.6C195.2,257.2 188,257.2 180.8,257.2L176.8,257.2L180,238.8C180,238 180.8,237.2 182.4,237.2L184,237.2C188.8,237.2 193.6,237.2 196,240.4C196.8,241.2 197.6,243.6 196.8,247.6" style="fill:rgb(38,59,128);fill-rule:nonzero;"/>
        <path d="M276,246.8L263.2,246.8C262.4,246.8 260.8,247.6 260.8,248.4L260,252.4L259.2,250.8C256,246.8 250.4,245.2 244,245.2C229.6,245.2 216.8,256.4 214.4,271.6C212.8,279.6 215.2,286.8 219.2,291.6C223.2,296.4 228.8,298 236,298C248,298 254.4,290.8 254.4,290.8L253.6,294.8C253.6,296.4 254.4,297.2 256,297.2L268,297.2C269.6,297.2 271.2,295.6 272,294L279.2,249.2C278.4,248.4 276.8,246.8 276,246.8M257.6,272.4C256,279.6 250.4,285.2 242.4,285.2C238.4,285.2 235.2,283.6 233.6,282C232,279.6 231.2,276.4 231.2,272.4C232,265.2 238.4,259.6 245.6,259.6C249.6,259.6 252,261.2 254.4,262.8C256.8,265.2 257.6,269.2 257.6,272.4" style="fill:rgb(38,59,128);fill-rule:nonzero;"/>
    </g>
    <g transform="matrix(1,0,0,1,0,-185)">
        <path d="M471.2,246.8L458.4,246.8C457.6,246.8 456,247.6 456,248.4L455.2,252.4L454.4,250.8C451.2,246.8 445.6,245.2 439.2,245.2C424.8,245.2 412,256.4 409.6,271.6C408,279.6 410.4,286.8 414.4,291.6C418.4,296.4 424,298 431.2,298C443.2,298 449.6,290.8 449.6,290.8L448.8,294.8C448.8,296.4 449.6,297.2 451.2,297.2L463.2,297.2C464.8,297.2 466.4,295.6 467.2,294L474.4,249.2C473.6,248.4 472.8,246.8 471.2,246.8M452.8,272.4C451.2,279.6 445.6,285.2 437.6,285.2C433.6,285.2 430.4,283.6 428.8,282C427.2,279.6 426.4,276.4 426.4,272.4C427.2,265.2 433.6,259.6 440.8,259.6C444.8,259.6 447.2,261.2 449.6,262.8C452.8,265.2 453.6,269.2 452.8,272.4" style="fill:rgb(19,154,214);fill-rule:nonzero;"/>
    </g>
    <g transform="matrix(1,0,0,1,0,-185)">
        <path d="M345.6,246.8L332,246.8C330.4,246.8 329.6,247.6 328.8,248.4L311.2,275.6L303.2,250C302.4,248.4 301.6,247.6 299.2,247.6L286.4,247.6C284.8,247.6 284,249.2 284,250.8L298.4,293.2L284.8,312.4C284,314 284.8,316.4 286.4,316.4L299.2,316.4C300.8,316.4 301.6,315.6 302.4,314.8L346.4,251.6C348.8,249.2 347.2,246.8 345.6,246.8" style="fill:rgb(38,59,128);fill-rule:nonzero;"/>
    </g>
    <g transform="matrix(1,0,0,1,0,-185)">
        <path d="M486.4,223.6L475.2,295.6C475.2,297.2 476,298 477.6,298L488.8,298C490.4,298 492,296.4 492.8,294.8L504,224.4C504,222.8 503.2,222 501.6,222L488.8,222C488,221.2 487.2,222 486.4,223.6" style="fill:rgb(19,154,214);fill-rule:nonzero;"/>
    </g>
    <g transform="matrix(1,0,0,1,0,-185)">
        <path d="M92,197.2C86.4,190.8 76,187.6 61.6,187.6L21.6,187.6C19.2,187.6 16.8,190 16,192.4L0,297.2C0,299.6 1.6,301.2 3.2,301.2L28,301.2L34.4,262L34.4,263.6C35.2,261.2 37.6,258.8 40,258.8L52,258.8C75.2,258.8 92.8,249.2 98.4,222.8L98.4,220.4C99.2,210 97.6,203.6 92,197.2" style="fill:rgb(38,59,128);fill-rule:nonzero;"/>
    </g>
    <g transform="matrix(1,0,0,1,0,-185)">
        <path d="M97.6,220.4L97.6,222.8C92,250 74.4,258.8 51.2,258.8L39.2,258.8C36.8,258.8 34.4,261.2 33.6,263.6L25.6,312.4C25.6,314 26.4,315.6 28.8,315.6L49.6,315.6C52,315.6 54.4,314 54.4,311.6L54.4,310.8L58.4,286L58.4,284.4C58.4,282 60.8,280.4 63.2,280.4L66.4,280.4C86.4,280.4 102.4,272.4 106.4,248.4C108,238.8 107.2,230 102.4,224.4C101.6,222.8 100,221.2 97.6,220.4" style="fill:rgb(19,154,214);fill-rule:nonzero;"/>
    </g>
    <g transform="matrix(1,0,0,1,0,-185)">
        <path d="M92,218C91.2,218 90.4,217.2 89.6,217.2C88.8,217.2 88,217.2 87.2,216.4C84,215.6 80.8,215.6 76.8,215.6L45.6,215.6C44.8,215.6 44,215.6 43.2,216.4C41.6,217.2 40.8,218.8 40.8,220.4L34.4,262L34.4,263.6C35.2,261.2 37.6,258.8 40,258.8L52,258.8C75.2,258.8 92.8,249.2 98.4,222.8C98.4,222 98.4,221.2 99.2,220.4C97.6,219.6 96.8,218.8 95.2,218.8C92.8,218 92.8,218 92,218" style="fill:rgb(35,44,101);fill-rule:nonzero;"/>
    </g>
</svg>
